<svg width="31" height="31" viewBox="0 0 31 31" fill="none" xmlns="http://www.w3.org/2000/svg">
<path d="M24.5417 11.625C24.5417 6.63143 20.4936 2.58334 15.5 2.58334C10.5065 2.58334 6.45837 6.63143 6.45837 11.625C6.45837 13.4166 6.98796 15.0828 7.88567 16.4881H7.87533C10.9237 21.2608 15.5 28.4167 15.5 28.4167L23.1248 16.4881H23.1157C24.0121 15.0828 24.5417 13.4166 24.5417 11.625ZM15.5 15.5C13.3597 15.5 11.625 13.7653 11.625 11.625C11.625 9.48472 13.3597 7.75001 15.5 7.75001C17.6403 7.75001 19.375 9.48472 19.375 11.625C19.375 13.7653 17.6403 15.5 15.5 15.5Z" fill="white"/>
</svg>
