<svg width="89" height="88" viewBox="0 0 89 88" fill="none" xmlns="http://www.w3.org/2000/svg">
<path fill-rule="evenodd" clip-rule="evenodd" d="M81.9646 45.9623C80.9349 45.9092 80.1481 45.0311 80.1481 44C80.1481 42.9689 80.9349 42.0908 81.9646 42.0377L85.9098 41.8342C87.1698 41.7693 88.25 42.7383 88.25 44C88.25 45.2617 87.1698 46.2307 85.9098 46.1658L81.9646 45.9623ZM75.3761 26.1709C75.8925 27.0631 77.0138 27.4325 77.932 26.9638L81.4445 25.1704C82.5716 24.595 83.0223 23.2082 82.3885 22.1129C81.7546 21.0176 80.3316 20.7232 79.2709 21.4134L75.9653 23.5645C75.1012 24.1268 74.8598 25.2786 75.3761 26.1709ZM62.3291 13.1239C63.2214 13.6402 64.3732 13.3988 64.9355 12.5347L67.0865 9.22911C67.7768 8.16844 67.4824 6.74536 66.3871 6.11153C65.2918 5.4777 63.905 5.92841 63.3296 7.05548L61.5362 10.568C61.0675 11.4862 61.4369 12.6075 62.3291 13.1239ZM44.5 8.35185C45.5311 8.35185 46.4092 7.5651 46.4623 6.53537L46.6658 2.59015C46.7307 1.33018 45.7617 0.25 44.5 0.25C43.2383 0.25 42.2693 1.33017 42.3342 2.59016L42.5377 6.53537C42.5908 7.5651 43.4689 8.35185 44.5 8.35185ZM26.6709 13.1239C27.5631 12.6075 27.9325 11.4862 27.4638 10.568L25.6704 7.05548C25.095 5.92841 23.7082 5.4777 22.6129 6.11153C21.5176 6.74536 21.2232 8.16844 21.9134 9.22911L24.0645 12.5347C24.6268 13.3988 25.7786 13.6402 26.6709 13.1239ZM13.6239 26.1709C14.1402 25.2786 13.8988 24.1268 13.0347 23.5645L9.72911 21.4135C8.66844 20.7232 7.24536 21.0176 6.61153 22.1129C5.9777 23.2082 6.42841 24.595 7.55548 25.1704L11.068 26.9638C11.9862 27.4325 13.1075 27.0631 13.6239 26.1709ZM7.03537 42.0377C8.0651 42.0908 8.85185 42.9689 8.85185 44C8.85185 45.0311 8.0651 45.9092 7.03537 45.9623L3.09016 46.1658C1.83017 46.2307 0.75 45.2617 0.75 44C0.75 42.7383 1.83018 41.7693 3.09015 41.8342L7.03537 42.0377ZM13.6239 61.8291C13.1075 60.9369 11.9862 60.5675 11.068 61.0362L7.55548 62.8296C6.42841 63.405 5.9777 64.7918 6.61153 65.8871C7.24536 66.9824 8.66844 67.2768 9.72911 66.5865L13.0347 64.4355C13.8988 63.8732 14.1402 62.7214 13.6239 61.8291ZM26.6709 74.8761C25.7786 74.3598 24.6268 74.6012 24.0645 75.4653L21.9135 78.7709C21.2232 79.8316 21.5176 81.2546 22.6129 81.8885C23.7082 82.5223 25.095 82.0716 25.6704 80.9445L27.4638 77.432C27.9325 76.5138 27.5631 75.3925 26.6709 74.8761ZM44.5 79.6481C43.4689 79.6481 42.5908 80.4349 42.5377 81.4646L42.3342 85.4098C42.2693 86.6698 43.2383 87.75 44.5 87.75C45.7617 87.75 46.7307 86.6698 46.6658 85.4098L46.4623 81.4646C46.4092 80.4349 45.5311 79.6481 44.5 79.6481ZM62.3291 74.8761C61.4369 75.3925 61.0675 76.5138 61.5362 77.432L63.3296 80.9445C63.905 82.0716 65.2918 82.5223 66.3871 81.8885C67.4824 81.2546 67.7768 79.8316 67.0866 78.7709L64.9355 75.4653C64.3732 74.6012 63.2214 74.3598 62.3291 74.8761ZM75.3761 61.8291C74.8598 62.7214 75.1012 63.8732 75.9653 64.4355L79.2709 66.5865C80.3316 67.2768 81.7546 66.9824 82.3885 65.8871C83.0223 64.7918 82.5716 63.405 81.4445 62.8296L77.932 61.0362C77.0138 60.5675 75.8925 60.9369 75.3761 61.8291Z" fill="#FFDE33"/>
<path d="M74.4768 44C74.4768 60.5557 61.0557 73.9768 44.5 73.9768C27.9442 73.9768 14.5231 60.5557 14.5231 44C14.5231 27.4442 27.9442 14.0231 44.5 14.0231C61.0557 14.0231 74.4768 27.4442 74.4768 44Z" fill="#FFDE33"/>
</svg>
