<svg width="31" height="104" viewBox="0 0 31 104" fill="none" xmlns="http://www.w3.org/2000/svg">
<path d="M20.6667 10.3333C20.6667 7.47986 18.3535 5.16667 15.5 5.16667C12.6465 5.16667 10.3333 7.47986 10.3333 10.3333V73.2153C11.9494 72.6441 13.6884 72.3333 15.5 72.3333C17.3116 72.3333 19.0506 72.6441 20.6667 73.2153V67.1667H18.0833C16.6566 67.1667 15.5 66.0101 15.5 64.5833C15.5 63.1566 16.6566 62 18.0833 62H20.6667V56.8333H18.0833C16.6566 56.8333 15.5 55.6767 15.5 54.25C15.5 52.8233 16.6566 51.6667 18.0833 51.6667H20.6667V46.5H18.0833C16.6566 46.5 15.5 45.3434 15.5 43.9167C15.5 42.4899 16.6566 41.3333 18.0833 41.3333H20.6667V36.1667H18.0833C16.6566 36.1667 15.5 35.0101 15.5 33.5833C15.5 32.1566 16.6566 31 18.0833 31H20.6667V25.8333H18.0833C16.6566 25.8333 15.5 24.6767 15.5 23.25C15.5 21.8233 16.6566 20.6667 18.0833 20.6667H20.6667V15.5H18.0833C16.6566 15.5 15.5 14.3434 15.5 12.9167C15.5 11.4899 16.6566 10.3333 18.0833 10.3333H20.6667ZM5.16667 76.2801V10.3333C5.16667 4.62639 9.79306 0 15.5 0C21.2069 0 25.8333 4.62639 25.8333 10.3333V76.2801C29.0044 79.1183 31 83.2428 31 87.8333C31 96.3938 24.0604 103.333 15.5 103.333C6.93959 103.333 0 96.3938 0 87.8333C0 83.2428 1.99563 79.1183 5.16667 76.2801ZM9.25494 79.5999C6.77073 81.4872 5.16667 84.4729 5.16667 87.8333C5.16667 93.5403 9.79306 98.1667 15.5 98.1667C21.2069 98.1667 25.8333 93.5403 25.8333 87.8333C25.8333 84.4729 24.2293 81.4872 21.7451 79.5999C21.7147 79.5782 21.6848 79.5557 21.6555 79.5327C19.9361 78.2556 17.8063 77.5 15.5 77.5C13.1937 77.5 11.0639 78.2556 9.34452 79.5327C9.31517 79.5557 9.2853 79.5782 9.25494 79.5999ZM15.5 93C12.6465 93 10.3333 90.6868 10.3333 87.8333C10.3333 84.9799 12.6465 82.6667 15.5 82.6667C18.3535 82.6667 20.6667 84.9799 20.6667 87.8333C20.6667 90.6868 18.3535 93 15.5 93Z" fill="white"/>
</svg>
